<?xml version="1.0" standalone="no"?>
<!DOCTYPE svg PUBLIC "-//W3C//DTD SVG 20010904//EN"
 "http://www.w3.org/TR/2001/REC-SVG-20010904/DTD/svg10.dtd">
<svg version="1.0" xmlns="http://www.w3.org/2000/svg"
 width="2480.000000pt" height="2480.000000pt" viewBox="0 0 2480.000000 2480.000000"
 preserveAspectRatio="xMidYMid meet">
<metadata>
Created by potrace 1.14, written by Peter Selinger 2001-2017
</metadata>
<g transform="translate(0.000000,2480.000000) scale(0.100000,-0.100000)"
fill="#000000" stroke="none">
<path d="M12270 23090 c-85 -9 -173 -20 -204 -26 -12 -2 -34 -7 -51 -9 -125
-22 -412 -106 -510 -149 -16 -8 -59 -26 -95 -42 -200 -89 -446 -241 -645 -401
-184 -147 -482 -457 -633 -658 -99 -132 -292 -416 -292 -430 0 -3 -15 -28 -34
-57 -54 -85 -111 -190 -214 -398 -170 -339 -236 -502 -407 -988 -3 -8 -20 -1
-52 23 -255 189 -554 361 -821 471 -155 65 -517 175 -688 209 -92 18 -303 55
-343 60 -25 3 -59 7 -76 9 -36 5 -143 16 -205 21 -53 5 -452 6 -495 1 -16 -2
-61 -6 -100 -10 -71 -7 -203 -25 -240 -32 -11 -3 -40 -9 -65 -14 -396 -80
-743 -233 -1060 -468 -131 -98 -156 -122 -254 -252 -314 -417 -511 -889 -605
-1445 -18 -106 -24 -151 -37 -270 -31 -302 -22 -809 21 -1140 2 -16 7 -52 10
-80 12 -99 16 -120 41 -269 35 -211 33 -196 65 -351 28 -135 39 -184 74 -325
8 -36 17 -74 20 -85 2 -11 18 -72 35 -135 17 -63 32 -122 34 -130 2 -8 12 -41
21 -73 9 -32 15 -60 13 -62 -1 -1 -47 -21 -101 -44 -442 -188 -977 -521 -1394
-867 -156 -131 -196 -167 -358 -329 -481 -481 -762 -1038 -838 -1665 -16 -125
-19 -411 -7 -530 12 -111 20 -173 25 -190 2 -8 6 -33 10 -55 20 -136 96 -393
167 -564 96 -231 241 -472 409 -681 80 -100 257 -284 363 -378 112 -99 383
-301 494 -367 387 -232 710 -379 1152 -525 241 -80 636 -191 770 -216 14 -3
52 -12 85 -21 33 -8 71 -17 85 -20 13 -2 25 -5 26 -6 1 -1 -27 -54 -63 -117
-128 -226 -273 -536 -388 -830 -35 -89 -129 -400 -145 -480 -5 -25 -18 -85
-28 -135 -11 -49 -23 -115 -27 -145 -4 -30 -9 -62 -10 -71 -22 -116 -29 -231
-29 -469 -1 -232 5 -320 30 -475 8 -49 17 -107 20 -129 8 -58 76 -260 119
-351 287 -607 970 -1364 1429 -1584 179 -85 345 -129 626 -166 193 -25 631
-20 880 10 19 2 64 7 100 10 36 3 97 11 135 16 39 5 90 12 115 15 25 3 56 7
70 10 14 2 43 7 65 9 32 5 357 59 475 79 14 2 79 14 145 25 66 12 129 23 140
25 11 2 40 7 65 11 25 4 54 9 65 11 11 2 65 11 120 20 55 9 126 27 158 39 l58
24 9 -22 c5 -12 39 -96 75 -187 37 -91 82 -198 101 -238 19 -41 34 -76 34 -78
0 -7 153 -313 191 -381 188 -340 377 -622 577 -858 88 -103 327 -345 397 -402
339 -275 597 -419 927 -518 87 -27 238 -61 313 -71 28 -3 59 -8 70 -11 49 -12
426 -10 525 2 133 16 245 34 290 45 19 5 46 11 60 13 14 3 45 10 70 17 25 7
52 14 61 15 106 21 409 135 574 218 416 207 797 526 1093 914 213 280 410 635
546 982 60 151 166 477 166 508 0 7 3 13 7 13 3 0 68 -20 144 -45 224 -73 584
-160 754 -181 17 -2 55 -8 85 -14 30 -5 87 -12 125 -15 39 -4 77 -8 85 -10 86
-22 697 -22 810 0 11 2 45 6 77 10 32 3 65 8 73 10 8 2 38 6 65 10 159 20 442
93 640 167 123 45 407 181 494 235 290 184 484 348 685 578 186 214 331 442
409 645 84 219 153 488 172 667 4 35 8 75 11 90 5 35 5 323 0 383 -2 25 -9 83
-15 130 -6 47 -13 103 -16 125 -3 22 -14 87 -25 145 -11 58 -22 119 -25 137
-7 43 -110 337 -173 494 -122 304 -298 663 -459 938 -60 101 -60 104 6 116
134 23 615 174 926 290 360 134 719 299 930 427 17 10 37 21 45 25 55 25 284
174 408 265 230 170 468 394 632 597 154 190 296 429 383 643 53 128 117 331
131 408 2 14 7 36 10 50 3 14 8 36 10 50 2 14 7 41 10 60 3 19 8 49 11 65 28
173 27 565 -3 755 -24 149 -30 187 -38 212 -3 10 -7 30 -10 44 -8 45 -51 185
-79 259 -14 39 -30 84 -35 100 -17 53 -154 317 -220 423 -75 120 -234 334
-329 442 -82 94 -348 360 -420 420 -29 25 -59 51 -66 57 -72 69 -354 282 -515
390 -182 121 -261 170 -445 273 -92 53 -347 179 -440 219 -55 24 -104 47 -109
51 -4 5 6 74 24 155 17 81 33 155 35 164 2 9 15 79 29 156 15 77 31 160 36
185 5 25 12 63 15 85 3 22 8 47 10 55 3 8 7 32 10 53 12 87 16 112 21 141 3
17 7 42 9 56 5 32 23 172 30 230 3 25 7 61 10 80 6 50 15 146 20 205 2 28 6
82 9 120 27 334 23 804 -9 1080 -14 119 -18 150 -29 223 -3 15 -7 45 -11 67
-3 23 -8 52 -10 65 -3 14 -7 39 -10 55 -47 273 -152 621 -245 810 -50 103
-169 300 -189 315 -4 3 -34 39 -68 80 -303 371 -790 636 -1258 685 -193 20
-385 24 -585 11 -109 -7 -143 -10 -236 -22 -22 -2 -60 -7 -85 -10 -89 -10
-388 -74 -534 -114 -356 -98 -718 -238 -1144 -442 -81 -38 -146 -68 -147 -66
0 2 -7 -2 -15 -9 -8 -6 -68 -39 -134 -73 -128 -66 -258 -135 -341 -181 l-52
-28 -8 37 c-4 20 -9 44 -10 52 -2 8 -13 51 -24 95 -12 44 -23 88 -25 97 -33
153 -200 693 -272 878 -170 440 -271 648 -488 1008 -20 33 -70 107 -76 112 -3
3 -21 27 -39 55 -19 27 -40 56 -46 65 -372 468 -739 737 -1204 885 -232 73
-436 102 -725 102 -99 0 -214 -3 -255 -7z m505 -755 c571 -83 1016 -458 1374
-1158 133 -261 235 -508 331 -807 29 -91 57 -174 61 -185 17 -47 117 -408 134
-485 2 -8 13 -55 25 -105 12 -49 23 -97 25 -105 2 -8 12 -53 23 -100 24 -101
93 -440 121 -595 11 -60 23 -123 26 -140 3 -16 8 -46 11 -65 3 -19 7 -42 9
-50 4 -14 10 -47 21 -115 2 -16 7 -41 9 -55 3 -14 7 -41 9 -60 3 -20 7 -47 10
-60 3 -14 8 -47 11 -75 3 -27 8 -57 10 -65 2 -8 6 -35 9 -60 4 -25 8 -58 11
-75 10 -62 15 -91 20 -125 2 -19 11 -82 19 -140 8 -58 18 -127 21 -155 3 -27
8 -59 10 -70 2 -11 9 -58 15 -105 6 -47 12 -101 15 -120 5 -37 14 -111 21
-170 4 -36 11 -90 19 -150 6 -43 9 -74 40 -325 9 -71 18 -146 20 -165 3 -19 7
-60 10 -90 3 -30 12 -109 20 -175 8 -66 17 -140 20 -165 3 -25 7 -61 10 -80 3
-19 7 -61 10 -93 3 -32 7 -72 10 -90 4 -32 21 -181 31 -267 4 -45 12 -110 19
-165 2 -16 7 -57 10 -90 3 -33 8 -71 11 -85 11 -65 16 -150 8 -150 -5 0 -38 9
-74 21 -62 19 -215 54 -290 65 -19 3 -46 7 -60 10 -43 7 -221 18 -305 18 -90
0 -288 -12 -307 -19 -7 -2 -31 -6 -53 -9 -310 -40 -690 -180 -1057 -390 l-48
-27 -1 23 c0 13 -2 30 -4 38 -1 8 -6 35 -10 60 -12 83 -63 391 -91 550 -6 34
-33 189 -39 220 -2 14 -6 36 -9 50 -2 14 -9 52 -15 85 -6 33 -14 74 -17 90
-28 154 -101 529 -125 645 -17 80 -33 154 -35 165 -13 68 -30 148 -60 283 -19
84 -36 163 -38 175 -40 207 -230 959 -321 1272 -15 50 -28 97 -30 105 -8 33
-86 279 -156 490 -95 290 -240 643 -357 875 -210 415 -417 657 -667 779 -204
99 -373 95 -557 -15 -272 -161 -479 -579 -617 -1241 l-26 -128 -93 92 c-50 51
-92 98 -92 106 0 74 227 717 336 950 19 41 34 76 34 78 0 18 211 418 293 554
23 40 167 260 179 275 4 6 43 56 85 111 293 381 596 638 955 808 191 91 418
156 603 171 44 4 82 9 84 11 6 6 348 -4 396 -11z m-1775 -2271 c220 -143 479
-638 730 -1394 41 -123 156 -500 173 -565 3 -11 23 -85 45 -165 36 -128 106
-399 117 -448 2 -9 17 -71 33 -137 70 -282 190 -824 218 -985 3 -14 7 -33 10
-42 3 -9 6 -25 8 -35 2 -10 6 -35 10 -55 4 -21 5 -38 3 -38 -19 0 -391 359
-452 435 -22 28 -43 52 -46 55 -3 3 -48 59 -101 125 -163 205 -251 331 -663
945 -247 368 -342 500 -538 748 -53 68 -95 127 -93 130 2 4 7 30 10 57 8 56
14 98 21 135 3 14 7 48 11 75 10 90 54 307 95 474 83 334 184 575 288 683 41
41 60 42 121 2z m-4083 -89 c67 -3 133 -8 145 -10 13 -2 50 -6 83 -10 265 -28
719 -149 946 -251 99 -45 239 -117 289 -148 236 -151 513 -356 634 -471 6 -6
47 -44 91 -84 44 -41 173 -164 287 -274 195 -187 210 -205 247 -281 22 -45 53
-94 68 -111 32 -33 198 -226 254 -295 125 -154 347 -467 599 -845 243 -365
324 -482 459 -665 50 -68 199 -258 211 -270 3 -3 34 -41 69 -85 66 -82 199
-218 375 -383 55 -50 97 -94 94 -97 -2 -3 -19 0 -37 5 -115 33 -448 35 -651 4
-31 -5 -189 -38 -232 -48 -106 -27 -298 -88 -373 -121 -199 -85 -268 -117
-370 -170 -225 -117 -458 -260 -684 -421 l-129 -92 -57 90 c-32 49 -77 113
-99 141 -28 35 -48 73 -60 117 -18 69 -39 100 -214 335 -356 474 -797 968
-1152 1285 -52 47 -103 93 -115 103 -51 47 -260 211 -356 280 -405 291 -814
460 -1144 472 -301 11 -584 -150 -734 -416 -33 -60 -75 -175 -86 -236 -11 -60
-13 -231 -4 -313 11 -105 19 -162 24 -180 2 -8 6 -31 9 -50 3 -19 17 -82 32
-140 14 -58 27 -112 29 -120 11 -46 60 -197 97 -298 51 -141 52 -163 23 -405
-2 -15 -6 -62 -10 -105 -4 -42 -8 -97 -10 -122 -37 -409 -21 -1128 30 -1420 2
-14 7 -45 10 -70 5 -42 20 -128 29 -175 23 -115 41 -196 63 -280 14 -55 28
-110 30 -123 3 -12 29 -92 58 -177 29 -86 50 -157 46 -159 -6 -4 -92 -22 -156
-32 -59 -10 -321 -76 -400 -101 -259 -81 -529 -203 -700 -319 -293 -197 -497
-426 -639 -719 -70 -144 -140 -361 -162 -505 -3 -19 -10 -55 -14 -80 -13 -69
-4 -287 14 -354 24 -85 64 -181 107 -259 l39 -69 -38 23 c-309 188 -467 306
-649 489 -96 96 -248 279 -276 332 -6 13 -21 37 -33 53 -107 152 -235 479
-269 685 -3 19 -7 46 -10 60 -13 66 -16 117 -19 265 -2 88 1 194 6 235 55 455
266 866 628 1230 92 91 202 193 260 240 24 19 48 40 54 45 77 70 331 256 486
357 335 218 705 402 1020 507 188 63 248 109 307 238 24 49 28 71 27 143 0 73
-7 108 -51 250 -28 91 -53 174 -56 185 -3 11 -15 54 -27 95 -23 80 -78 289
-86 328 -2 13 -16 69 -30 125 -21 87 -44 191 -60 272 -4 21 -16 87 -38 205 -3
19 -8 46 -11 60 -3 14 -7 45 -11 70 -3 25 -9 70 -14 100 -10 60 -16 112 -25
205 -3 33 -8 69 -10 80 -17 87 -24 540 -12 730 27 407 130 800 290 1105 101
193 240 389 308 435 24 16 46 33 49 36 3 3 30 22 62 42 221 141 507 245 778
283 25 3 56 8 70 10 14 2 95 6 180 10 85 3 157 8 159 10 2 2 7 2 10 0 3 -2 61
-7 128 -11z m11628 -69 c61 -3 121 -9 135 -12 206 -46 317 -92 470 -192 97
-64 246 -210 305 -297 22 -33 42 -62 45 -65 19 -17 93 -180 119 -260 26 -82
87 -301 96 -349 6 -32 34 -187 39 -216 7 -36 24 -164 30 -220 3 -22 8 -74 12
-115 17 -155 9 -871 -11 -990 -2 -14 -7 -56 -10 -95 -4 -38 -8 -83 -11 -100
-5 -40 -13 -99 -20 -163 -3 -29 -7 -63 -10 -75 -2 -12 -7 -40 -10 -62 -3 -22
-16 -103 -29 -180 -14 -77 -27 -156 -30 -175 -3 -19 -19 -100 -36 -180 -16
-80 -32 -158 -35 -175 -3 -16 -19 -91 -35 -165 -17 -74 -32 -142 -34 -150 -2
-8 -13 -58 -25 -110 -41 -175 -33 -255 36 -393 49 -96 142 -170 259 -207 122
-38 348 -137 545 -239 805 -413 1465 -1017 1745 -1596 51 -105 100 -230 109
-278 2 -12 11 -49 20 -82 19 -74 27 -118 44 -245 13 -101 7 -399 -12 -510 -86
-533 -359 -948 -879 -1338 -60 -45 -112 -81 -113 -79 -2 2 7 48 20 103 34 140
38 170 41 339 4 213 -20 353 -99 560 -167 439 -600 850 -1231 1169 -88 45
-182 91 -210 103 -191 82 -451 183 -473 183 -16 0 -15 11 3 57 28 75 83 300
100 413 29 194 39 325 39 535 0 135 -9 308 -19 390 -2 17 -7 57 -10 90 -26
255 -98 601 -196 941 l-29 101 26 84 c101 331 153 527 180 679 2 14 11 61 19
105 8 44 17 105 20 135 3 30 8 69 10 85 2 17 5 89 5 160 1 226 -50 407 -151
535 -83 104 -182 172 -354 241 -78 31 -84 32 -215 30 -74 -1 -151 -3 -170 -6
-19 -2 -62 -7 -94 -10 -256 -27 -582 -149 -880 -329 -118 -71 -390 -266 -426
-306 -3 -3 -36 -32 -75 -64 -67 -57 -373 -359 -445 -441 -169 -190 -410 -494
-525 -663 -57 -85 -74 -102 -73 -75 1 10 -2 43 -6 73 -8 56 -10 74 -20 170 -4
30 -9 71 -11 90 -3 19 -7 60 -10 90 -6 56 -12 108 -20 170 -3 19 -7 56 -10 83
-10 95 -16 144 -30 257 -8 63 -17 138 -20 165 -3 28 -7 66 -10 85 -4 34 -12
99 -21 170 -2 19 -6 51 -9 70 -3 19 -7 52 -10 74 -2 21 -7 55 -9 75 -3 20 -10
74 -16 121 -15 117 -20 161 -25 190 -2 14 -6 43 -9 65 -3 22 -12 90 -21 150
-9 61 -18 128 -21 150 -3 22 -11 78 -19 125 -7 47 -17 108 -21 135 -4 28 -8
52 -9 55 -1 6 -19 120 -20 135 -2 18 -26 159 -45 265 -48 263 -47 243 -8 263
18 9 51 27 73 39 367 210 916 481 1200 593 39 15 79 31 90 36 49 21 218 79
300 104 50 15 101 31 115 36 30 11 253 66 296 73 17 3 66 12 110 21 43 8 106
18 139 21 33 4 63 8 66 10 3 2 64 6 135 10 71 4 130 7 131 8 3 2 109 -1 248
-8z m-12385 -2782 c51 -8 47 -7 120 -27 278 -76 660 -316 1035 -650 96 -85
515 -506 515 -517 0 -4 -30 1 -67 12 -38 10 -77 20 -88 22 -11 3 -49 11 -85
20 -71 17 -285 52 -365 60 -232 24 -286 27 -495 27 -207 0 -316 -5 -470 -22
-52 -6 -106 -12 -120 -14 -14 -1 -50 -5 -81 -9 l-56 -8 -33 89 c-129 355 -196
751 -146 865 21 48 71 105 110 125 73 38 120 44 226 27z m12648 -56 c43 -19
57 -31 75 -68 33 -68 32 -262 -3 -469 -6 -36 -13 -67 -15 -70 -2 -4 -6 -26
-10 -51 -8 -54 -62 -266 -108 -420 -24 -84 -37 -114 -48 -112 -8 2 -47 13 -86
23 -91 24 -201 47 -256 54 -23 3 -49 7 -57 10 -84 23 -534 23 -645 0 -11 -3
-37 -7 -57 -10 -21 -3 -55 -8 -75 -11 -41 -6 -179 -39 -228 -55 -218 -68 -395
-142 -559 -235 -54 -30 -100 -54 -101 -52 -6 6 243 319 362 454 579 662 1150
1014 1671 1032 74 3 96 0 140 -20z m-11898 -1753 c80 -3 157 -7 170 -10 14 -2
45 -6 70 -9 102 -13 126 -16 150 -21 14 -3 41 -8 60 -11 192 -34 440 -113 610
-196 409 -199 664 -477 790 -863 34 -102 78 -183 121 -221 75 -67 175 -104
270 -99 115 6 170 35 354 181 153 122 288 222 425 316 123 84 317 208 326 208
2 0 21 11 42 23 69 44 246 135 352 180 94 41 321 122 367 132 10 2 41 8 68 15
149 34 392 46 500 25 365 -71 640 -322 824 -750 66 -154 87 -232 157 -573 35
-173 66 -318 69 -320 5 -6 2 -9 185 143 80 66 181 149 225 184 44 35 85 69 90
76 6 6 37 31 70 56 33 24 64 48 70 52 122 97 337 230 516 318 186 91 366 150
595 193 113 22 374 23 479 2 11 -2 40 -7 65 -11 120 -19 313 -88 439 -157 122
-66 179 -111 345 -270 87 -84 164 -156 171 -160 8 -5 38 29 91 104 44 61 96
134 116 162 21 28 56 78 79 111 222 316 551 639 829 814 181 114 436 221 609
256 135 28 219 36 371 36 182 1 366 -28 511 -78 l47 -16 15 -71 c9 -39 28
-120 41 -181 24 -105 34 -155 41 -200 7 -54 17 -115 25 -165 5 -30 12 -89 16
-130 4 -41 8 -88 10 -105 6 -47 6 -437 0 -470 -3 -16 -8 -57 -11 -90 -4 -50
-43 -247 -59 -306 -165 -596 -626 -1000 -1339 -1173 -78 -19 -178 -40 -222
-46 -44 -6 -91 -13 -104 -15 -111 -19 -443 -25 -598 -12 -35 3 -63 2 -64 -1
-1 -12 -5 -31 -44 -207 -20 -93 -39 -181 -42 -195 -2 -14 -27 -115 -54 -225
-121 -482 -239 -803 -362 -978 -58 -83 -82 -94 -232 -113 -53 -7 -168 -41
-225 -67 -138 -63 -274 -198 -344 -342 -64 -130 -80 -204 -81 -365 0 -245 19
-317 158 -595 105 -210 167 -347 247 -540 33 -83 65 -159 70 -170 37 -78 170
-511 186 -605 3 -14 9 -41 14 -60 5 -19 11 -53 15 -75 3 -22 7 -47 10 -55 9
-34 17 -143 20 -263 7 -370 -108 -585 -379 -707 -62 -28 -177 -66 -225 -75
-14 -2 -49 -9 -76 -14 -84 -16 -212 -25 -370 -25 -140 -1 -344 9 -390 18 -11
2 -49 7 -85 11 -69 7 -78 8 -180 24 -66 11 -217 39 -345 65 -38 8 -108 24
-155 36 -47 12 -92 23 -100 25 -8 2 -60 15 -115 30 -55 15 -118 32 -140 37
-22 6 -44 15 -50 19 -5 5 -17 9 -27 9 -24 0 -340 103 -476 156 -78 30 -119 41
-130 35 -17 -8 -526 -181 -547 -185 -5 -2 -41 -12 -80 -24 -171 -52 -446 -122
-620 -158 -75 -15 -180 -34 -221 -39 -27 -4 -56 -8 -64 -10 -8 -3 -44 -7 -80
-11 -36 -3 -92 -10 -125 -14 -64 -9 -495 -7 -531 3 -12 3 -39 8 -60 11 -75 12
-100 18 -189 47 -375 122 -549 421 -549 944 0 197 13 321 59 570 64 351 219
835 399 1248 31 70 67 150 81 177 25 49 25 55 21 212 -2 111 -9 184 -21 228
-60 230 -223 392 -435 435 -3 0 -21 4 -41 8 -102 21 -242 128 -360 277 -45 56
-109 148 -109 156 0 3 -9 19 -20 34 -28 39 -142 269 -178 360 -110 272 -200
590 -248 875 -21 126 -29 150 -49 147 -11 -2 -112 -30 -225 -62 -265 -75 -358
-90 -530 -86 -192 6 -354 45 -515 127 -108 55 -128 70 -210 153 -38 39 -95 94
-125 121 -121 110 -320 491 -423 810 -64 196 -104 368 -138 590 -12 76 -13 89
-23 180 -4 33 -9 74 -11 90 -20 149 -25 666 -10 915 4 74 9 147 9 162 2 35 3
36 56 43 25 3 61 7 80 10 19 2 114 7 210 11 96 3 177 8 178 10 2 1 9 1 15 -1
7 -2 77 -6 157 -10z m12275 -2797 c457 -169 762 -328 1040 -538 139 -105 365
-333 365 -368 0 -6 4 -12 8 -14 15 -6 81 -124 111 -200 49 -122 64 -199 64
-338 -1 -129 -15 -217 -54 -340 -36 -112 -142 -320 -228 -448 -101 -150 -77
-137 -553 -303 -350 -121 -594 -188 -823 -225 -140 -22 -134 -23 -191 53 -43
60 -232 303 -276 358 -111 135 -282 341 -287 345 -4 3 -22 25 -41 50 -19 25
-37 47 -40 50 -3 3 -34 41 -70 85 -76 95 -292 358 -300 365 -3 3 -50 59 -105
125 -55 66 -120 142 -145 170 -76 85 -145 167 -148 174 -1 4 48 22 110 40 225
66 475 174 673 292 275 163 543 409 703 642 53 78 47 77 187 25z m-13195 -148
c0 -13 112 -188 176 -275 61 -82 73 -95 144 -155 70 -59 80 -69 80 -82 0 -32
236 -205 390 -286 85 -44 251 -112 323 -132 26 -7 47 -15 47 -19 -1 -8 -158
-206 -205 -257 -5 -6 -35 -40 -65 -74 -30 -35 -93 -107 -139 -159 -46 -53 -95
-110 -110 -126 -14 -17 -53 -62 -86 -100 -33 -38 -64 -75 -70 -81 -5 -6 -19
-22 -30 -35 -11 -13 -56 -67 -101 -119 -112 -133 -303 -371 -418 -525 -55 -71
-102 -134 -106 -138 -4 -5 -25 -4 -46 2 -22 5 -56 12 -78 15 -21 4 -42 8 -46
11 -3 2 -22 7 -41 10 -19 3 -54 11 -79 16 -25 6 -56 13 -70 15 -14 3 -33 7
-42 10 -9 3 -26 7 -37 9 -103 20 -138 35 -186 82 -88 86 -141 128 -316 254
-269 194 -387 287 -480 379 -94 94 -137 152 -177 238 -33 73 -35 175 -3 317
73 328 206 543 467 755 79 64 232 151 395 223 101 46 346 122 489 153 90 20
298 62 340 69 19 3 36 8 39 11 9 8 41 4 41 -6z m1984 -1315 c171 -450 386
-803 635 -1040 62 -59 249 -205 263 -205 4 0 27 -13 51 -28 24 -15 76 -40 115
-56 l71 -29 -23 -51 c-13 -28 -48 -76 -77 -106 -30 -31 -88 -93 -129 -139 -41
-46 -93 -103 -115 -126 -22 -24 -72 -78 -111 -122 -40 -43 -83 -90 -95 -104
-329 -360 -558 -630 -747 -884 -62 -82 -115 -154 -120 -160 -11 -14 -171 -259
-209 -320 -183 -296 -391 -752 -438 -960 -21 -92 -27 -151 -30 -285 -4 -173 7
-255 55 -416 88 -302 259 -594 468 -801 114 -112 279 -231 392 -282 l42 -19
-38 -6 c-22 -3 -64 -8 -94 -11 -30 -4 -66 -8 -80 -10 -14 -2 -68 -7 -120 -11
-52 -4 -113 -8 -135 -10 -67 -5 -417 -4 -475 1 -52 5 -72 8 -160 21 -132 20
-272 69 -360 125 -364 234 -909 897 -1053 1280 -24 65 -51 195 -65 321 -14
127 -5 598 13 628 2 3 6 28 9 55 4 28 9 57 11 65 2 8 7 31 10 50 3 19 15 71
26 115 11 44 22 88 24 98 17 79 127 394 177 507 11 25 27 61 35 80 64 147 257
509 342 640 20 30 51 80 69 110 24 39 50 66 93 93 100 65 165 173 178 299 1 7
208 285 250 334 14 17 33 40 41 50 48 61 136 171 145 180 5 6 26 30 45 54 19
24 40 48 45 54 6 6 35 40 65 76 30 36 60 70 65 76 14 16 51 59 115 134 30 36
64 74 75 86 11 11 43 47 70 79 28 33 95 111 151 175 98 112 244 291 294 360
36 50 164 180 173 177 5 -1 32 -65 61 -142z m9009 -78 c146 -166 323 -373 412
-483 206 -254 534 -651 570 -690 6 -6 21 -26 35 -44 14 -18 33 -42 44 -54 10
-11 39 -48 64 -81 25 -33 49 -62 52 -65 13 -10 254 -336 288 -389 19 -30 54
-80 77 -110 58 -77 236 -357 330 -521 114 -197 252 -472 329 -655 38 -88 72
-169 77 -180 69 -160 135 -370 153 -485 3 -19 8 -46 11 -60 3 -14 7 -46 10
-71 3 -25 7 -54 9 -65 16 -84 22 -282 12 -384 -6 -61 -9 -77 -21 -140 -3 -14
-8 -38 -10 -55 -24 -137 -126 -429 -166 -479 -5 -6 -31 -45 -59 -86 -177 -268
-455 -523 -719 -662 -30 -16 -60 -33 -66 -37 -5 -4 -55 -27 -110 -50 -55 -24
-114 -49 -131 -57 -41 -18 -261 -81 -346 -99 -73 -16 -102 -21 -213 -39 -28
-5 -105 -13 -205 -22 -53 -5 -430 -5 -480 0 -47 5 -160 17 -185 21 -11 1 -24
3 -30 4 -5 1 9 12 33 26 141 80 351 269 453 406 142 190 249 434 275 624 3 28
8 53 10 57 8 13 18 166 18 283 0 108 -7 217 -19 285 -36 220 -52 288 -103 460
-23 75 -93 272 -115 321 -8 19 -24 55 -36 81 -11 26 -21 50 -21 53 0 3 -32 72
-72 153 -246 506 -578 1017 -1029 1583 -119 149 -355 429 -372 440 -8 6 14 12
93 25 56 10 159 48 229 86 292 155 496 472 688 1073 47 150 58 184 67 228 4
15 11 25 16 22 5 -3 74 -79 153 -168z m-8333 -2679 c-5 -18 -12 -48 -15 -65
-3 -18 -7 -45 -10 -60 -44 -263 -57 -401 -59 -619 -1 -89 1 -197 5 -240 12
-122 20 -188 24 -204 2 -8 7 -31 10 -50 3 -19 8 -43 11 -52 3 -9 7 -26 9 -37
11 -48 14 -59 30 -116 21 -72 89 -232 124 -295 15 -25 32 -56 39 -70 28 -56
121 -170 211 -260 l94 -95 2 -80 c3 -86 14 -220 20 -245 2 -8 7 -35 10 -60 6
-51 9 -72 31 -185 26 -130 32 -160 54 -251 12 -47 19 -89 16 -91 -19 -19 -427
17 -606 53 -137 28 -401 109 -435 134 -5 4 -21 11 -34 15 -86 26 -252 160
-351 283 -94 116 -195 317 -246 487 -22 74 -26 110 -27 205 0 146 14 216 70
360 54 140 195 431 271 560 158 270 366 560 622 865 136 163 146 171 130 113z
m7707 -314 c28 -44 109 -182 132 -224 14 -25 35 -63 47 -85 92 -164 236 -483
289 -640 198 -584 182 -1010 -49 -1325 -155 -212 -424 -380 -786 -493 -195
-61 -180 -59 -265 -26 -179 69 -455 199 -565 267 -19 12 -45 26 -58 32 -12 5
-35 18 -50 28 -15 11 -65 44 -112 75 -47 30 -110 73 -141 94 -31 21 -65 43
-75 49 -15 9 -14 10 12 11 41 0 194 12 224 17 14 3 59 10 100 16 213 34 497
127 610 200 14 9 64 42 111 72 173 113 338 298 435 490 40 79 92 219 109 293
4 17 9 39 11 50 41 174 53 547 23 710 -4 22 -10 65 -13 95 -8 67 -40 225 -72
350 -13 52 -24 99 -24 104 0 7 40 -53 107 -160z m-3797 -1870 c216 -72 739
-216 788 -217 26 -1 29 1 -202 -106 -217 -101 -429 -168 -596 -188 -126 -15
-338 2 -455 37 -171 51 -354 124 -564 225 l-64 31 129 33 c187 48 477 133 649
190 83 28 157 48 165 45 8 -3 76 -26 150 -50z m-1589 -376 c4 -161 2 -359 -4
-419 -8 -73 -25 -170 -32 -177 -5 -6 -86 166 -118 253 -43 115 -119 367 -113
372 2 3 27 7 55 10 28 2 73 8 99 12 26 4 62 8 80 9 l32 3 1 -63z m-903 36 c23
-3 64 -7 90 -9 26 -2 52 -4 58 -4 7 -1 22 -38 34 -83 29 -110 99 -348 109
-373 5 -11 30 -74 57 -140 136 -343 285 -507 492 -543 89 -16 183 7 265 65
123 86 198 231 233 451 4 20 8 44 9 52 2 8 4 30 4 48 1 29 3 32 20 23 39 -21
276 -113 377 -146 126 -42 262 -74 394 -92 72 -10 349 -10 425 0 215 29 557
137 785 248 19 10 37 16 39 14 1 -2 5 -21 6 -42 14 -154 19 -183 46 -283 58
-215 197 -343 372 -342 172 2 320 125 447 372 l41 79 157 -102 c172 -112 186
-120 284 -175 77 -43 74 -20 22 -207 -102 -368 -259 -726 -441 -1003 -343
-523 -770 -856 -1323 -1030 -90 -28 -214 -55 -400 -87 -74 -13 -328 -13 -420
0 -355 48 -691 225 -1001 526 -86 83 -120 119 -220 235 -203 235 -463 664
-652 1074 -192 418 -402 1081 -463 1459 l-6 34 59 -7 c32 -4 77 -10 101 -12z
m3987 0 c39 -4 73 -9 77 -13 4 -4 -16 -76 -45 -161 -57 -166 -146 -384 -154
-376 -17 17 -16 407 2 541 3 26 1 25 28 19 12 -2 54 -7 92 -10z"/>
<path d="M11673 12583 c-10 -717 -152 -923 -638 -926 -91 -1 -271 10 -316 18
-13 3 -44 8 -69 11 -51 6 -68 9 -160 24 -106 17 -100 15 -595 111 -151 29
-176 33 -250 44 -23 3 -52 7 -65 10 -14 3 -54 7 -90 10 -36 3 -74 8 -85 11
-53 13 188 -176 365 -287 193 -121 377 -210 584 -284 l120 -42 -55 -16 c-132
-39 -266 -41 -421 -8 -289 61 -452 160 -540 326 -37 71 -108 266 -108 298 0
67 -105 -98 -135 -213 -81 -311 92 -619 416 -739 217 -81 478 -77 654 11 107
54 199 142 247 238 39 76 44 81 74 69 28 -10 174 -36 259 -45 413 -46 752 75
932 331 142 202 169 511 72 800 -25 73 -118 269 -130 273 -5 2 -9 9 -9 15 0 7
-13 27 -28 45 l-27 33 -2 -118z"/>
<path d="M13056 12653 c-76 -104 -164 -313 -196 -468 -15 -68 -19 -276 -7
-347 57 -349 336 -589 737 -634 108 -12 285 -7 395 11 103 17 105 18 172 33
l41 9 16 -42 c48 -123 184 -244 339 -300 86 -32 115 -36 242 -40 239 -7 452
72 604 225 199 200 231 511 77 743 -37 56 -56 70 -56 43 0 -41 -82 -250 -136
-348 -41 -75 -170 -172 -284 -214 -255 -92 -474 -112 -650 -58 l-55 17 30 10
c363 119 744 331 1006 559 l54 48 -40 -5 c-67 -8 -189 -24 -210 -29 -11 -2
-42 -7 -70 -10 -27 -4 -106 -18 -175 -31 -69 -13 -136 -26 -150 -29 -14 -2
-108 -20 -210 -40 -390 -74 -595 -100 -790 -100 -222 0 -359 42 -455 139 -131
132 -187 366 -189 787 -1 65 -2 118 -3 118 -2 0 -18 -21 -37 -47z"/>
<path d="M11430 8705 c-317 -57 -512 -264 -512 -540 0 -187 55 -314 172 -400
80 -59 179 -88 340 -100 124 -10 217 -31 287 -65 72 -36 133 -40 203 -16 24 8
45 14 46 13 0 -1 7 -31 13 -67 7 -36 24 -88 37 -117 32 -67 124 -152 211 -195
67 -32 68 -33 212 -32 137 0 150 2 205 27 141 65 231 172 257 307 7 36 14 67
15 68 2 2 20 -2 41 -9 56 -18 137 -14 170 9 41 28 148 60 228 67 39 4 86 8
105 11 19 2 56 6 82 9 139 16 270 92 333 194 49 79 67 147 71 267 3 100 0 118
-25 190 -37 108 -91 185 -176 250 -183 142 -489 181 -781 101 -96 -27 -168
-67 -119 -67 8 0 23 -4 33 -10 9 -5 85 -37 167 -71 278 -113 408 -189 461
-269 22 -33 26 -50 25 -106 0 -37 -6 -73 -12 -80 -6 -7 -63 -33 -127 -58 -162
-63 -256 -121 -330 -201 -34 -37 -60 -72 -59 -77 1 -6 -12 -17 -29 -24 l-31
-13 39 147 c21 81 39 155 40 165 3 28 69 26 110 -4 47 -33 66 -20 48 35 -29
90 -156 152 -237 116 -53 -23 -141 -115 -231 -240 -98 -137 -144 -197 -183
-240 -34 -38 -79 -129 -79 -160 0 -30 -15 -24 -18 6 -3 42 -48 122 -103 182
-27 32 -67 82 -87 112 -20 30 -40 60 -44 65 -4 6 -33 44 -65 85 -107 142 -179
200 -248 200 -78 -1 -173 -73 -189 -143 -9 -37 15 -45 50 -18 17 14 41 21 68
21 l41 0 29 -112 c16 -62 29 -114 29 -115 -1 -1 5 -24 13 -49 8 -26 12 -49 10
-51 -10 -11 -75 28 -81 48 -23 72 -187 192 -340 250 -146 54 -173 69 -178 98
-9 45 1 132 19 159 49 74 160 144 369 232 55 23 109 45 120 50 11 5 60 26 109
46 85 36 87 38 63 50 -27 15 -172 58 -227 69 -73 14 -285 14 -360 0z"/>
</g>
</svg>
